<svg xmlns="http://www.w3.org/2000/svg" viewBox="0 0 32 32"><defs><style>.cls-1{fill:#ffffff;}</style></defs><title>icon</title><g id="Layer_2" data-name="Layer 2"><path class="cls-1" d="M16,30A14,14,0,1,1,30,16,14,14,0,0,1,16,30ZM16,3.06A12.94,12.94,0,1,0,28.94,16,12.95,12.95,0,0,0,16,3.06Z"/><path class="cls-1" d="M19.51,9.23h-.12V8.41a.59.59,0,1,0-1.18,0v.82H13.72V8.41a.6.6,0,1,0-1.19,0v.82h-.12a3.21,3.21,0,0,0-3.19,3.2V20a3.21,3.21,0,0,0,3.19,3.2h7.1a3.22,3.22,0,0,0,3.2-3.2V12.43A3.22,3.22,0,0,0,19.51,9.23Zm-7.1,1.19h.12v.83a.6.6,0,0,0,1.19,0v-.83h4.49v.83a.59.59,0,1,0,1.18,0v-.83h.12a2,2,0,0,1,2,2V13H10.4v-.59A2,2,0,0,1,12.41,10.42ZM19.51,22h-7.1a2,2,0,0,1-2-2V14.2H21.52V20A2,2,0,0,1,19.51,22Z"/><path class="cls-1" d="M19.51,16.33h-7.1a.6.6,0,0,0,0,1.19h7.1a.6.6,0,0,0,0-1.19Z"/><path class="cls-1" d="M18.33,18.7H13.6a.59.59,0,0,0,0,1.18h4.73a.59.59,0,0,0,0-1.18Z"/></g></svg>