<svg xmlns="http://www.w3.org/2000/svg" viewBox="0 0 32 32"><defs><style>.cls-1{fill:#999999;}</style></defs><title>icon</title><g id="Layer_2" data-name="Layer 2"><path class="cls-1" d="M16,30A14,14,0,1,1,30,16,14,14,0,0,1,16,30ZM16,3.06A12.94,12.94,0,1,0,28.94,16,12.95,12.95,0,0,0,16,3.06Z"/><path class="cls-1" d="M12.75,13.72h1.39V12.37a3.65,3.65,0,0,1,.45-2.09,2.46,2.46,0,0,1,2.16-1,8.79,8.79,0,0,1,2.5.25l-.35,2.07a4.64,4.64,0,0,0-1.12-.17c-.54,0-1,.19-1,.73v1.58H19l-.15,2H16.75v7H14.14v-7H12.75Z"/></g></svg>