<svg xmlns="http://www.w3.org/2000/svg" viewBox="0 0 32 32">
  <defs>
    <style>
      .cls-1 {
        fill: #ffffff;
      }
    </style>
  </defs>
  <title>ic</title>
  <g id="Layer_2" data-name="Layer 2">
    <g>
      <path class="cls-1" d="M16,30A14,14,0,1,1,30,16,14,14,0,0,1,16,30ZM16,2.9A13.1,13.1,0,1,0,29.1,16,13.11,13.11,0,0,0,16,2.9Z"/>
      <path class="cls-1" d="M12.92,25.69a.54.54,0,0,1-.21-.05.45.45,0,0,1-.2-.57L15.32,18H11.59a.43.43,0,0,1-.39-.24.44.44,0,0,1,0-.47L18.77,6.5a.45.45,0,0,1,.58-.13.44.44,0,0,1,.2.56L16.65,14h3.76a.45.45,0,0,1,.39.24.47.47,0,0,1,0,.47L13.29,25.5A.44.44,0,0,1,12.92,25.69Zm-.47-8.58H16a.45.45,0,0,1,.37.2.48.48,0,0,1,0,.42l-1.61,4,4.76-6.87H16a.45.45,0,0,1-.37-.2.42.42,0,0,1,0-.42l1.61-3.92Z"/>
    </g>
  </g>
</svg>
