<svg xmlns="http://www.w3.org/2000/svg" viewBox="0 0 32 32">
  <defs>
    <style>
      .cls-1 {
        fill: #999999;
      }
    </style>
  </defs>
  <title>icon</title>
  <g id="Layer_2" data-name="Layer 2">
    <g>
      <path class="cls-1" d="M15.78,30A14,14,0,1,1,30,16.22,14,14,0,0,1,15.78,30Zm.43-26.94A12.94,12.94,0,1,0,28.94,16.21,13,13,0,0,0,16.21,3.06Z"/>
      <g id="surface1">
        <path class="cls-1" d="M13.13,9.05a4,4,0,0,0-4,4v5.84a4,4,0,0,0,4,4H19a4,4,0,0,0,4-4V13.08a4,4,0,0,0-4-4Zm0,1.07H19a3,3,0,0,1,3,3v5.84a3,3,0,0,1-3,3H13.13a3,3,0,0,1-3-3V13.08A3,3,0,0,1,13.13,10.12Zm6.93,1.07a.8.8,0,1,0,.8.8A.8.8,0,0,0,20.06,11.19Zm-4,1.07A3.74,3.74,0,1,0,19.79,16,3.76,3.76,0,0,0,16.05,12.26Zm0,1.07A2.67,2.67,0,1,1,13.37,16,2.66,2.66,0,0,1,16.05,13.33Z"/>
      </g>
    </g>
  </g>
</svg>
