<svg xmlns="http://www.w3.org/2000/svg" viewBox="0 0 32 32"><defs><style>.cls-1{fill:#ffffff;}</style></defs><title>icon</title><g id="Layer_2" data-name="Layer 2"><path class="cls-1" d="M18.87,15.34a.53.53,0,0,1-.53-.53V10.35A2.21,2.21,0,0,0,16,8.28a2.21,2.21,0,0,0-2.34,2.07v4.31a.53.53,0,0,1-1.06,0V10.35A3.28,3.28,0,0,1,16,7.22a3.28,3.28,0,0,1,3.4,3.13v4.46A.53.53,0,0,1,18.87,15.34Z"/><path class="cls-1" d="M16,30A14,14,0,1,1,30,16,14,14,0,0,1,16,30ZM16,3.06A12.94,12.94,0,1,0,28.94,16,12.95,12.95,0,0,0,16,3.06Z"/><path class="cls-1" d="M22,24.2H10a.53.53,0,0,1-.53-.53V13.14a.53.53,0,0,1,.53-.53H22a.53.53,0,0,1,.53.53V23.67A.53.53,0,0,1,22,24.2ZM10.54,23.15H21.46V13.66H10.54Z"/></g></svg>