<?xml version="1.0" encoding="UTF-8"?>
<svg id="Layer_2" data-name="Layer 2" xmlns="http://www.w3.org/2000/svg" viewBox="0 0 32 32">
  <defs>
    <style>
      .cls-1 {
        fill: #999999;
        stroke-width: 0px;
      }
    </style>
  </defs>
  <path class="cls-1" d="M16,30c-7.72,0-14-6.28-14-14S8.28,2,16,2s14,6.28,14,14-6.28,14-14,14ZM16,3.11c-7.11,0-12.89,5.78-12.89,12.89s5.78,12.89,12.89,12.89,12.89-5.78,12.89-12.89S23.11,3.11,16,3.11Z"/>
  <path class="cls-1" d="M19.85,15.41c-.07-.03-.14-.07-.21-.1-.12-2.29-1.38-3.6-3.48-3.61,0,0-.02,0-.03,0-1.26,0-2.3.54-2.95,1.51l1.16.79c.48-.73,1.23-.88,1.79-.88,0,0,.01,0,.02,0,.69,0,1.21.21,1.55.6.25.29.41.68.49,1.18-.61-.1-1.28-.14-1.99-.1-2,.12-3.28,1.28-3.2,2.9.04.82.45,1.53,1.15,1.99.59.39,1.35.58,2.14.54,1.04-.06,1.86-.46,2.44-1.18.43-.55.71-1.27.83-2.17.5.3.87.7,1.07,1.17.35.81.37,2.14-.72,3.22-.95.95-2.09,1.36-3.81,1.37-1.91-.01-3.36-.63-4.3-1.82-.88-1.12-1.34-2.74-1.35-4.81.02-2.07.47-3.69,1.35-4.81.94-1.2,2.39-1.81,4.3-1.82,1.93.01,3.4.63,4.38,1.83.48.59.84,1.33,1.08,2.19l1.35-.36c-.29-1.06-.74-1.98-1.36-2.74-1.25-1.54-3.08-2.33-5.44-2.35h0c-2.35.02-4.17.81-5.38,2.35-1.08,1.38-1.64,3.29-1.66,5.69h0s0,.01,0,.01c.02,2.4.58,4.31,1.66,5.69,1.22,1.55,3.03,2.34,5.38,2.35h0c2.09-.01,3.57-.56,4.78-1.78,1.59-1.59,1.54-3.58,1.02-4.8-.38-.88-1.09-1.59-2.07-2.06ZM16.24,18.81c-.88.05-1.79-.34-1.83-1.19-.03-.62.44-1.32,1.88-1.4.16,0,.33-.01.49-.01.52,0,1.01.05,1.46.15-.17,2.07-1.14,2.41-2,2.46Z"/>
</svg>