<svg xmlns="http://www.w3.org/2000/svg" viewBox="0 0 32 32">
  <defs>
    <style>
      .cls-1 {
        fill: #999999;
      }
    </style>
  </defs>
  <title>icon library pixel v02</title>
  <g id="Layer_2" data-name="Layer 2">
    <path class="cls-1" d="M16,30A14,14,0,1,1,30,16,14,14,0,0,1,16,30ZM16,3.06A12.94,12.94,0,1,0,29,16,13,13,0,0,0,16,3.06Z"/>
    <path class="cls-1" d="M22.53,11.54a3,3,0,0,1-3-3A.47.47,0,0,0,19,8h-2.5a.47.47,0,0,0-.46.47V18.75A1.78,1.78,0,1,1,14.3,17a.47.47,0,0,0,.46-.47V14a.47.47,0,0,0-.46-.46,5.21,5.21,0,1,0,5.21,5.21V14.22a6.43,6.43,0,0,0,3,.75A.47.47,0,0,0,23,14.5V12A.47.47,0,0,0,22.53,11.54ZM22.07,14a5.53,5.53,0,0,1-2.76-1,.47.47,0,0,0-.74.38v5.37a4.28,4.28,0,1,1-4.74-4.26v1.58A2.72,2.72,0,1,0,17,18.75V9H18.6a4,4,0,0,0,3.47,3.46Z"/>
  </g>
</svg>
