<?xml version="1.0" encoding="UTF-8"?><svg id="Layer_2" xmlns="http://www.w3.org/2000/svg" viewBox="0 0 32 32"><defs><style>.cls-1{fill:#999999;stroke-width:0px;}</style></defs><path class="cls-1" d="m15.9635,28.94c7.1465.0204,12.9561-5.757,12.9765-12.9035.0204-7.1465-5.7564-12.956-12.903-12.9765-7.1465-.0204-12.9566,5.757-12.9765,12.903-.0152,7.1448,5.7588,12.9514,12.903,12.977m.0764-26.9399c7.7316.0222,13.9821,6.3077,13.96,14.0399-.0216,7.7316-6.3077,13.9816-14.0393,13.96-7.7322-.0222-13.9822-6.3077-13.9606-14.0399.0222-7.7316,6.3077-13.9821,14.0399-13.96"/><path class="cls-1" d="m17.2666,14.9582l4.9561-5.7611h-1.1744l-4.3034,5.0023-3.4371-5.0023h-3.9643l5.1976,7.5643-5.1976,6.0414h1.1745l4.5445-5.2826,3.6298,5.2826h3.9643l-5.3903-7.8446h.0003Zm-1.6086,1.8699l-.5266-.7532-4.1902-5.9936h1.804l3.3815,4.837.5266.7532,4.3955,6.2874h-1.804l-3.5869-5.1305v-.0003Z"/></svg>