<svg xmlns="http://www.w3.org/2000/svg" viewBox="0 0 32 32"><defs><style>.cls-1{fill:#999999;}</style></defs><title>icon</title><g id="Layer_2" data-name="Layer 2"><path class="cls-1" d="M16,30A14,14,0,1,1,30,16,14,14,0,0,1,16,30ZM16,3.06A12.94,12.94,0,1,0,28.94,16,12.95,12.95,0,0,0,16,3.06Z"/><path class="cls-1" d="M20.67,11.45c-.82,0-2.88-.08-4.67-.08s-3.85,0-4.67.08-1.23.18-1.6.84a8.36,8.36,0,0,0-.59,3.86h0A8.33,8.33,0,0,0,9.73,20c.37.67.78.79,1.6.84s2.88.08,4.67.08,3.85,0,4.67-.08,1.23-.17,1.6-.84a8.33,8.33,0,0,0,.59-3.86h0a8.36,8.36,0,0,0-.59-3.86C21.9,11.63,21.49,11.5,20.67,11.45Zm-6,7.22v-5l3.9,2.52Z"/></g></svg>