<svg xmlns="http://www.w3.org/2000/svg" viewBox="0 0 19 19"><defs><style>.cls-1{fill:#fff;}</style></defs><g id="Layer_2" data-name="Layer 2"><g id="Layer_1-2" data-name="Layer 1"><path id="Orders_icon" data-name="Orders icon" class="cls-1" d="M16.81,19H2.19A2.19,2.19,0,0,1,0,16.81V7.88H19v8.93A2.19,2.19,0,0,1,16.81,19ZM1,8.88v7.93A1.19,1.19,0,0,0,2.19,18H16.81A1.19,1.19,0,0,0,18,16.81V8.88ZM19,7.75H9.56V0H15a2.18,2.18,0,0,1,2.07,1.5L18.9,6.87c0,.11,0,.23.05.34Zm-8.43-1H17.8L16.16,1.81A1.18,1.18,0,0,0,15,1H10.56Zm-1.12,1H0l0-.54A2,2,0,0,1,.1,6.87L1.89,1.49A2.18,2.18,0,0,1,4,0H9.44Zm-8.25-1H8.44V1H4a1.18,1.18,0,0,0-1.12.81Z"/></g></g></svg>